<?xml version="1.0" encoding="UTF-8" standalone="no"?>
<!-- Generator: Adobe Illustrator 19.1.0, SVG Export Plug-In . SVG Version: 6.00 Build 0)  -->

<svg
   version="1.1"
   id="Layer_1"
   x="0px"
   y="0px"
   width="360"
   height="186"
   viewBox="0 0 360 186"
   xml:space="preserve"
   sodipodi:docname="circuito.svg"
   xmlns:inkscape="http://www.inkscape.org/namespaces/inkscape"
   xmlns:sodipodi="http://sodipodi.sourceforge.net/DTD/sodipodi-0.dtd"
   xmlns="http://www.w3.org/2000/svg"
   xmlns:svg="http://www.w3.org/2000/svg"><defs
   id="defs29" /><sodipodi:namedview
   id="namedview29"
   pagecolor="#ffffff"
   bordercolor="#000000"
   borderopacity="0.25"
   inkscape:showpageshadow="2"
   inkscape:pageopacity="0.0"
   inkscape:pagecheckerboard="0"
   inkscape:deskcolor="#d1d1d1"
   showgrid="false" />&#10;<style
   type="text/css"
   id="style1">&#10;	.st0{fill:none;stroke:#11ACCD;stroke-width:3;stroke-miterlimit:10;}&#10;	.st1{opacity:0.5;fill:#CCFAFF;}&#10;	.st2{fill:none;stroke:#000000;stroke-linecap:round;stroke-linejoin:round;stroke-miterlimit:10;}&#10;	.st3{fill:none;stroke:#000000;stroke-width:1.5;stroke-linecap:round;stroke-linejoin:round;stroke-miterlimit:10;}&#10;	.st4{fill:none;stroke:#000000;stroke-linecap:round;stroke-miterlimit:10;}&#10;	.st5{fill:none;stroke:#000000;stroke-width:1.5;stroke-linecap:round;stroke-miterlimit:10;}&#10;	.st6{fill:none;stroke:#000000;stroke-width:2;stroke-linecap:round;stroke-linejoin:round;stroke-miterlimit:10;}&#10;	.st7{fill:none;stroke:#000000;stroke-width:1.5;stroke-miterlimit:10;}&#10;	.st8{fill:none;stroke:#000000;stroke-miterlimit:10;}&#10;	.st9{fill:none;stroke:#000000;stroke-width:2;stroke-miterlimit:10;}&#10;	.st10{fill:none;stroke:#000000;stroke-width:2;stroke-linecap:round;stroke-miterlimit:10;}&#10;	.st11{fill:none;stroke:#000000;stroke-linecap:round;stroke-linejoin:round;}&#10;	.st12{fill:none;}&#10;	.st13{stroke:#000000;stroke-linecap:round;stroke-linejoin:round;stroke-miterlimit:10;}&#10;	.st14{fill:none;stroke:#000000;stroke-width:1.5;stroke-linejoin:round;stroke-miterlimit:10;}&#10;	.st15{fill:none;stroke:#000000;stroke-linejoin:round;stroke-miterlimit:10;}&#10;	.st16{clip-path:url(#SVGID_2_);fill:none;stroke:#000000;stroke-linejoin:round;stroke-miterlimit:10;}&#10;	.st17{clip-path:url(#SVGID_2_);fill:none;stroke:#ADADEB;stroke-linejoin:round;stroke-miterlimit:10;}&#10;	.st18{clip-path:url(#SVGID_2_);}&#10;	.st19{stroke:#000000;stroke-linejoin:round;stroke-miterlimit:10;}&#10;	.st20{stroke:#000000;stroke-width:3;stroke-linejoin:round;stroke-miterlimit:10;}&#10;	.st21{fill:none;stroke:#000000;stroke-linejoin:round;}&#10;	.st22{fill:#FFFFFF;stroke:#000000;stroke-miterlimit:10;}&#10;	.st23{fill:none;stroke:#11ACCD;stroke-width:3;stroke-linecap:round;stroke-miterlimit:10;}&#10;	.st24{fill:#11ACCD;}&#10;	.st25{fill:#0C7F99;}&#10;	.st26{fill:#FF9C39;}&#10;	.st27{fill:none;stroke:#000000;stroke-width:2;stroke-linecap:round;stroke-miterlimit:10;stroke-dasharray:6.1241,6.1241;}&#10;	.st28{fill:none;stroke:#11ACCD;stroke-width:4;stroke-linecap:round;stroke-miterlimit:10;}&#10;	.st29{font-family:'KaTeX_Main-Regular';}&#10;	.st30{font-size:18px;}&#10;	.st31{fill:none;stroke:#11ACCD;stroke-width:3;stroke-linecap:round;stroke-linejoin:round;}&#10;	.st32{fill:none;stroke:#11ACCD;stroke-width:2;stroke-linecap:round;stroke-linejoin:round;}&#10;	.st33{fill:none;stroke:#11ACCD;stroke-width:2;stroke-linecap:round;stroke-linejoin:round;stroke-dasharray:5.9723,5.9723;}&#10;	.st34{fill:#E07D10;}&#10;	.st35{stroke:#000000;stroke-miterlimit:10;}&#10;</style>&#10;<line
   class="st0"
   x1="66"
   y1="174"
   x2="66"
   y2="174"
   id="line1" />&#10;<text
   class="st29 st30"
   id="text1"
   x="6.0004001"
   y="114.0002">V1</text>&#10;<text
   class="st29 st30"
   id="text2"
   x="114.0002"
   y="23.9998">R1</text>&#10;<text
   class="st29 st30"
   id="text3"
   x="149.99969"
   y="162.0002">R3</text>&#10;<text
   class="st29 st30"
   id="text4"
   x="221.99969"
   y="24.000099">R2</text>&#10;<text
   class="st29 st30"
   id="text5"
   x="329.9996"
   y="114.0002">V2</text>&#10;<g
   id="g8">&#10;	<circle
   class="st6"
   cx="300"
   cy="108"
   r="18"
   id="circle5" />&#10;	<polyline
   class="st2"
   points="287,48 300,48 300,66 300,90  "
   id="polyline5" />&#10;	<polyline
   class="st2"
   points="300,126 300,150 300,168  "
   id="polyline6" />&#10;	<line
   class="st3"
   x1="300"
   y1="106.84756"
   x2="300"
   y2="118.84756"
   id="line6" />&#10;	<line
   class="st3"
   x1="294"
   y1="112.84756"
   x2="306"
   y2="112.84756"
   id="line7" />&#10;	<line
   class="st3"
   x1="294"
   y1="99.292686"
   x2="306"
   y2="99.292686"
   id="line8" />&#10;</g>&#10;<g
   id="g11">&#10;	<circle
   class="st6"
   cx="60.200001"
   cy="108"
   r="18"
   id="circle8" />&#10;	<polyline
   class="st2"
   points="60.2,90 60.2,66 60.2,48 72.8,48  "
   id="polyline8" />&#10;	<polyline
   class="st2"
   points="60.2,126 60,168 300,168  "
   id="polyline9" />&#10;	<line
   class="st3"
   x1="60.200001"
   y1="94.5"
   x2="60.200001"
   y2="106.5"
   id="line9" />&#10;	<line
   class="st3"
   x1="54.200001"
   y1="100.5"
   x2="66.199997"
   y2="100.5"
   id="line10" />&#10;	<line
   class="st3"
   x1="54.200001"
   y1="118.5"
   x2="66.199997"
   y2="118.5"
   id="line11" />&#10;</g>&#10;<g
   id="g13">&#10;	<line
   class="st2"
   x1="150"
   y1="48"
   x2="179.8"
   y2="48"
   id="line12" />&#10;	<polyline
   class="st6"
   points="103.2,48 107.1,39 114.9,57 122.7,39 130.5,57 138.3,39 146.1,57 150,48  "
   id="polyline12" />&#10;	<line
   class="st2"
   x1="72.800003"
   y1="48"
   x2="103.2"
   y2="48"
   id="line13" />&#10;	<polygon
   class="st12"
   points="72.8,36 72.8,60 179.8,60 180,36 "
   id="polygon13" />&#10;</g>&#10;<g
   id="g15">&#10;	<line
   class="st2"
   x1="257.20001"
   y1="48"
   x2="287"
   y2="48"
   id="line14" />&#10;	<polyline
   class="st6"
   points="210.4,48 214.3,39 222.1,57 229.9,39 237.7,57 245.5,39 253.3,57 257.2,48  "
   id="polyline14" />&#10;	<line
   class="st2"
   x1="180"
   y1="48"
   x2="210.39999"
   y2="48"
   id="line15" />&#10;	<polygon
   class="st12"
   points="180,36 180,60 287,60 287.2,36 "
   id="polygon15" />&#10;</g>&#10;<g
   id="g17">&#10;	<line
   class="st2"
   x1="180"
   y1="84.599998"
   x2="180"
   y2="66"
   id="line16" />&#10;	<polyline
   class="st6"
   points="180,131.4 171,127.5 189,119.7 171,111.9 189,104.1 171,96.3 189,88.5 180,84.6  "
   id="polyline16" />&#10;	<line
   class="st2"
   x1="180"
   y1="168"
   x2="180"
   y2="131.39999"
   id="line17" />&#10;	<rect
   x="168"
   y="66"
   class="st12"
   width="24"
   height="102"
   id="rect17" />&#10;</g>&#10;<g
   id="g18">&#10;	<circle
   class="st13"
   cx="180"
   cy="48"
   r="1.5"
   id="circle17" />&#10;	<rect
   x="174"
   y="42"
   class="st12"
   width="12"
   height="12"
   id="rect18" />&#10;</g>&#10;<g
   id="g19">&#10;	<circle
   class="st13"
   cx="180"
   cy="168"
   r="1.5"
   id="circle18" />&#10;	<rect
   x="174"
   y="162"
   class="st12"
   width="12"
   height="12"
   id="rect19" />&#10;</g>&#10;<line
   class="st2"
   x1="180"
   y1="66"
   x2="180"
   y2="48"
   id="line19" />&#10;<circle
   class="st1"
   cx="126.5"
   cy="109"
   r="24"
   id="circle19" />&#10;<text
   class="st25 st29 st30"
   id="text19"
   x="123.251"
   y="115">I</text>&#10;<g
   id="g22">&#10;	<g
   id="g21">&#10;		<path
   class="st31"
   d="m 102.2,142.6 c 6.8,4.7 15,7.4 23.8,7.4 23.2,0 42,-18.8 42,-42 0,-23.2 -18.8,-42 -42,-42 -23.2,0 -42,18.8 -42,42 0,11.8 4.8,22.4 12.6,30"
   id="path19" />&#10;		<g
   id="g20">&#10;			<path
   class="st24"
   d="m 96.6,138 c 1.9,3.1 3.8,7.5 4.4,10.9 l 2,-5.7 5.2,-3.1 c -3.5,0.1 -8.2,-0.9 -11.6,-2.1 z"
   id="path20" />&#10;		</g>&#10;	</g>&#10;</g>&#10;<circle
   class="st1"
   cx="234.5"
   cy="109"
   r="24"
   id="circle22" />&#10;<text
   class="st25 st29 st30"
   id="text22"
   x="228.002"
   y="115">II</text>&#10;<g
   id="g25">&#10;	<g
   id="g24">&#10;		<path
   class="st31"
   d="m 210.2,142.6 c 6.8,4.7 15,7.4 23.8,7.4 23.2,0 42,-18.8 42,-42 0,-23.2 -18.8,-42 -42,-42 -23.2,0 -42,18.8 -42,42 0,11.8 4.8,22.4 12.6,30"
   id="path22" />&#10;		<g
   id="g23">&#10;			<path
   class="st24"
   d="m 204.6,138 c 1.9,3.1 3.8,7.5 4.4,10.9 l 2,-5.7 5.2,-3.1 c -3.5,0.1 -8.2,-0.9 -11.6,-2.1 z"
   id="path23" />&#10;		</g>&#10;	</g>&#10;</g>&#10;<g
   id="g29">&#10;	<g
   id="g28">&#10;		<line
   class="st32"
   x1="55.200001"
   y1="180"
   x2="58.200001"
   y2="180"
   id="line25" />&#10;		<path
   class="st33"
   d="M 64.2,180 H 312 c 6.6,0 12,-5.4 12,-12 V 42 c 0,-6.6 -5.4,-12 -12,-12 H 48 c -6.6,0 -12,5.4 -12,12 v 126 c 0,4.5 2.5,8.5 6.3,10.5"
   id="path25" />&#10;		<path
   class="st32"
   d="m 45,179.6 c 1,0.2 1.9,0.4 3,0.4"
   id="path26" />&#10;		<g
   id="g27">&#10;			<path
   class="st24"
   d="m 48,180 c 3.4,1.3 7.6,3.4 10.3,5.7 l -2.1,-5.7 2.1,-5.7 c -2.7,2.3 -6.9,4.4 -10.3,5.7 z"
   id="path27" />&#10;		</g>&#10;	</g>&#10;</g>&#10;<circle
   class="st1"
   cx="330"
   cy="30"
   r="24"
   id="circle29" />&#10;<text
   class="st25 st29 st30"
   id="text29"
   x="320.2529"
   y="36">III</text>&#10;</svg>
